<?xml version="1.0" encoding="UTF-8"?>
<svg version="1.1" xmlns="http://www.w3.org/2000/svg" width="567" height="243">
<path d="M0 0 C1.25490234 -0.00773438 1.25490234 -0.00773438 2.53515625 -0.015625 C5.2547735 0.28508065 6.73811543 0.60400897 8.9375 2.25 C13.88962754 12.86170188 9.42406275 26.43184696 6.49023438 37.15576172 C5.5254723 40.81111908 4.71282077 44.5014129 3.875 48.1875 C2.69319031 53.31537166 1.36352951 58.31279861 -0.41015625 63.26953125 C-1.35442694 66.13626922 -1.95019773 69.05349995 -2.53515625 72.01171875 C-3.0625 74.25 -3.0625 74.25 -4.02734375 77.11328125 C-5.08060919 80.30487425 -5.84360163 83.46807267 -6.5625 86.75 C-7.49954037 91.02779299 -8.65075499 95.10584531 -10.0625 99.25 C-10.41226758 100.57911682 -10.75346017 101.91082739 -11.0625 103.25 C-9.91394531 103.22679688 -8.76539063 103.20359375 -7.58203125 103.1796875 C3.58803118 103.02409544 13.97340533 104.03321583 24.9375 106.25 C25.515 105.445625 26.0925 104.64125 26.6875 103.8125 C28.9375 101.25 28.9375 101.25 30.8125 100.1875 C34.22022352 100.28772716 36.28375215 102.25968911 38.9375 104.25 C38.46949289 108.30606165 38.05796792 111.71588679 35.9375 115.25 C36.4325 114.569375 36.9275 113.88875 37.4375 113.1875 C40.61620805 109.45251804 44.20263847 106.41348346 47.9375 103.25 C48.5871875 102.68539062 49.236875 102.12078125 49.90625 101.5390625 C56.94028851 95.42898668 56.94028851 95.42898668 60.375 94.8125 C62.9375 95.25 62.9375 95.25 65.078125 97.359375 C67.32771854 100.85664227 67.38616495 102.8196841 67.25 106.9375 C67.22550781 108.07574219 67.20101562 109.21398437 67.17578125 110.38671875 C66.9375 113.25 66.9375 113.25 65.9375 115.25 C65.81422071 117.35148182 65.76191994 119.45743907 65.75 121.5625 C65.73582031 122.69300781 65.72164062 123.82351562 65.70703125 124.98828125 C65.93604583 128.22941981 66.37924712 130.40787099 67.9375 133.25 C70.88323268 134.56212815 70.88323268 134.56212815 73.625 133.375 C77.614887 130.81544985 80.20766183 127.75311732 83.203125 124.11328125 C83.77546875 123.49839844 84.3478125 122.88351563 84.9375 122.25 C85.5975 122.25 86.2575 122.25 86.9375 122.25 C87.04449219 121.70472656 87.15148437 121.15945312 87.26171875 120.59765625 C88.08800192 117.72715808 89.33620944 115.3182242 90.75 112.6875 C91.25144531 111.73746094 91.75289063 110.78742188 92.26953125 109.80859375 C93.96607873 107.20616143 95.23675727 105.76366003 97.9375 104.25 C101.6875 104.5625 101.6875 104.5625 104.9375 105.25 C104.9375 105.91 104.9375 106.57 104.9375 107.25 C105.5975 107.25 106.2575 107.25 106.9375 107.25 C107.71172436 113.31475747 106.06393727 116.1967482 102.4453125 121.0390625 C99.49538889 125.36459816 98.68702843 128.85542982 98.8125 134.0625 C98.83054687 135.03832031 98.84859375 136.01414063 98.8671875 137.01953125 C98.89039063 137.75558594 98.91359375 138.49164063 98.9375 139.25 C101.52109827 140.21661182 102.68931702 140.33474541 105.33984375 139.4296875 C110.31018996 136.87175894 114.2086419 134.51155212 117.9375 130.25 C118.741875 129.46625 119.54625 128.6825 120.375 127.875 C126.17212291 122.22073531 126.17212291 122.22073531 129.9375 115.25 C129.2775 114.59 128.6175 113.93 127.9375 113.25 C127.75 110.6875 127.75 110.6875 127.9375 108.25 C128.9375 107.25 128.9375 107.25 132.5 107.1875 C133.634375 107.208125 134.76875 107.22875 135.9375 107.25 C136.19144531 106.1878125 136.44539063 105.125625 136.70703125 104.03125 C137.05442872 102.60410365 137.40209968 101.17702385 137.75 99.75 C137.91564453 99.05390625 138.08128906 98.3578125 138.25195312 97.640625 C139.29539695 93.38809922 140.57650139 89.33940747 142.16333008 85.25927734 C142.9536017 83.20820971 143.68501583 81.14403432 144.40234375 79.06640625 C149.62634553 63.95323947 155.39734385 47.79015615 166.9375 36.25 C167.5975 36.25 168.2575 36.25 168.9375 36.25 C168.9375 35.59 168.9375 34.93 168.9375 34.25 C170.39486087 34.05508548 171.85344593 33.86930642 173.3125 33.6875 C174.12460937 33.58308594 174.93671875 33.47867188 175.7734375 33.37109375 C177.9375 33.25 177.9375 33.25 179.9375 34.25 C179.9375 34.91 179.9375 35.57 179.9375 36.25 C180.5975 36.25 181.2575 36.25 181.9375 36.25 C184.70145782 41.77791564 183.54907963 49.86675919 182.06640625 55.64453125 C177.79997319 67.21285959 171.09489011 77.29763961 163.9375 87.25 C163.2775 88.24 162.6175 89.23 161.9375 90.25 C161.2775 90.25 160.6175 90.25 159.9375 90.25 C159.5971875 91.3328125 159.5971875 91.3328125 159.25 92.4375 C157.64196677 95.8832855 155.8828833 97.85259499 152.9375 100.25 C150.125 100.5625 150.125 100.5625 147.9375 100.25 C147.6075 102.56 147.2775 104.87 146.9375 107.25 C155.83282759 104.80056197 164.61921417 101.12106303 169.9375 93.25 C171.375 91.375 171.375 91.375 172.9375 90.25 C175.61229327 90.51095544 177.53845141 91.0504757 179.9375 92.25 C180.45700145 95.29279422 180.52687774 97.39740502 178.73046875 99.99609375 C171.8745388 107.20525662 163.01966286 111.5018058 153.9375 115.25 C153.009375 115.6625 152.08125 116.075 151.125 116.5 C148.9375 117.25 148.9375 117.25 144.9375 117.25 C145.43121094 118.15363281 145.92492187 119.05726563 146.43359375 119.98828125 C147.08085583 121.17961869 147.72798426 122.37102875 148.375 123.5625 C148.86323242 124.45485352 148.86323242 124.45485352 149.36132812 125.36523438 C150.77487384 127.97373626 151.99698633 130.42845899 152.9375 133.25 C159.35820876 134.4836084 164.11526486 134.40265134 169.9375 131.25 C171.63609667 129.95758949 173.31359523 128.63509525 174.9375 127.25 C175.5975 127.25 176.2575 127.25 176.9375 127.25 C177.3396875 126.3528125 177.3396875 126.3528125 177.75 125.4375 C178.9375 123.25 178.9375 123.25 180.31640625 121.9140625 C182.25144687 119.92773165 183.57496822 117.77658983 185.0625 115.4375 C189.33799127 109.28079257 194.49548536 104.59259363 202.0625 103.1875 C206.44542832 103.25819239 210.6714483 103.9839483 213.9375 107.25 C214.10546875 109.17578125 214.10546875 109.17578125 214.125 111.5625 C214.13917969 112.34238281 214.15335937 113.12226562 214.16796875 113.92578125 C213.91734413 116.4532668 213.20123772 118.06718031 211.9375 120.25 C211.2775 120.25 210.6175 120.25 209.9375 120.25 C209.69386719 120.87261719 209.45023437 121.49523437 209.19921875 122.13671875 C207.26071639 125.38356016 204.82713771 125.73831292 201.3359375 126.7890625 C197.89326698 127.45068322 195.33382768 127.0448852 191.9375 126.25 C190.21487965 129.24407823 189.66443977 131.42749593 189.6875 134.875 C189.68234375 135.65101563 189.6771875 136.42703125 189.671875 137.2265625 C189.75834646 139.47688411 189.75834646 139.47688411 191.9375 141.25 C196.38025466 142.03401553 199.38822345 140.20638938 203.16796875 138.125 C204.9375 137.25 204.9375 137.25 206.9375 137.25 C206.9375 136.59 206.9375 135.93 206.9375 135.25 C208.60416667 134.25 210.27083333 133.25 211.9375 132.25 C212.824375 131.363125 213.71125 130.47625 214.625 129.5625 C215.388125 128.799375 216.15125 128.03625 216.9375 127.25 C217.5975 127.25 218.2575 127.25 218.9375 127.25 C219.29521484 126.41662109 219.29521484 126.41662109 219.66015625 125.56640625 C221.23009847 122.71938564 223.17670449 120.58071826 225.375 118.1875 C226.15746094 117.33027344 226.93992187 116.47304687 227.74609375 115.58984375 C229.9375 113.25 229.9375 113.25 231.46704102 111.89379883 C233.26064359 109.88876377 233.84866357 108.17008858 234.65625 105.609375 C235.09517578 104.25005859 235.09517578 104.25005859 235.54296875 102.86328125 C235.83816406 101.91839844 236.13335937 100.97351563 236.4375 100 C239.80647915 89.39286477 239.80647915 89.39286477 241.59375 85.328125 C242.65268377 82.90242788 243.35041882 80.80090905 243.9375 78.25 C240.56140404 78.52976708 237.18693755 78.8259427 233.8125 79.125 C232.86117188 79.20363281 231.90984375 79.28226562 230.9296875 79.36328125 C225.95089046 79.81275598 221.6642537 80.54153481 216.9375 82.25 C214.22688725 82.47663986 211.66601708 82.3440868 208.9375 82.25 C207.58310332 79.54120665 207.87248549 77.24066732 207.9375 74.25 C208.56317871 74.16435791 209.18885742 74.07871582 209.83349609 73.99047852 C212.66034647 73.60146482 215.48641732 73.2070505 218.3125 72.8125 C219.29734375 72.67779297 220.2821875 72.54308594 221.296875 72.40429688 C222.23789062 72.27216797 223.17890625 72.14003906 224.1484375 72.00390625 C225.01774902 71.88345947 225.88706055 71.7630127 226.78271484 71.63891602 C228.97784561 71.34700837 228.97784561 71.34700837 230.9375 70.25 C233.82120333 70.17805131 236.67989664 70.15708292 239.5625 70.1875 C240.36429687 70.19201172 241.16609375 70.19652344 241.9921875 70.20117188 C243.97399006 70.21296832 245.95575433 70.23090395 247.9375 70.25 C248.20046875 69.40953125 248.4634375 68.5690625 248.734375 67.703125 C250.95531703 61.32873294 253.95958068 55.2986985 256.9375 49.25 C257.44796875 48.20585938 257.9584375 47.16171875 258.484375 46.0859375 C261.96259507 39.59700006 261.96259507 39.59700006 266.625 37.9375 C269.9375 38.25 269.9375 38.25 271.875 39.25 C273.65694224 42.60424422 273.53814688 44.46592467 272.9375 48.25 C271.36400343 50.88969096 269.60457569 53.29739565 267.75390625 55.75 C265.3329456 59.08207488 263.69813541 62.53310303 261.9375 66.25 C261.2775 67.24 260.6175 68.23 259.9375 69.25 C261.51337891 69.32347656 261.51337891 69.32347656 263.12109375 69.3984375 C276.56661217 70.08914292 276.56661217 70.08914292 282.8359375 71.7109375 C286.17958165 72.56860087 289.57662572 73.15175033 292.96875 73.78515625 C294.9375 74.25 294.9375 74.25 295.9375 75.25 C295.97842937 77.58297433 295.97991723 79.91705225 295.9375 82.25 C295.43347656 82.11722656 294.92945313 81.98445313 294.41015625 81.84765625 C281.47961301 78.72226428 269.21136955 77.85659223 255.9375 78.25 C253.9575 83.695 253.9575 83.695 251.9375 89.25 C251.2775 89.25 250.6175 89.25 249.9375 89.25 C249.79054688 90.14138672 249.79054688 90.14138672 249.640625 91.05078125 C248.80062198 95.70700491 247.73468216 100.06937563 246.0625 104.5 C242.42350588 114.18594717 239.83241844 123.87181341 238.125 134.0625 C237.98892334 134.83851563 237.85284668 135.61453125 237.71264648 136.4140625 C236.80575853 142.23599804 236.2266546 148.8283092 238.9375 154.25 C245.98748053 155.16956268 250.38319063 152.43809564 255.9375 148.25 C266.10381554 139.37838166 275.88690641 128.26564494 281.9375 116.1171875 C283.11308051 113.92215827 284.24219533 112.08386322 285.9375 110.25 C287.2575 110.25 288.5775 110.25 289.9375 110.25 C291.00760304 113.01443285 291.10033213 114.78851367 290.11328125 117.5859375 C289.10238321 119.83474227 288.05346524 122.05159637 286.9375 124.25 C286.2775 124.25 285.6175 124.25 284.9375 124.25 C284.68226563 124.97832031 284.42703125 125.70664063 284.1640625 126.45703125 C282.86718387 129.41011477 281.36780953 131.46048353 279.3125 133.9375 C277.14820295 136.56278451 274.99137658 139.18010606 272.9140625 141.875 C266.0777341 150.73790797 257.12762879 160.17271458 245.9375 163.25 C241.09474585 163.71121468 238.94252253 163.7809553 234.625 161.5 C230.41576919 157.97599281 228.80476899 155.64922748 227.9375 150.25 C227.86049714 148.55742755 227.82944933 146.86226001 227.83984375 145.16796875 C227.84306641 144.23662109 227.84628906 143.30527344 227.84960938 142.34570312 C227.85798828 141.38599609 227.86636719 140.42628906 227.875 139.4375 C227.87951172 138.45845703 227.88402344 137.47941406 227.88867188 136.47070312 C227.90041316 134.06373889 227.91683581 131.65690143 227.9375 129.25 C227.17050781 130.02472656 226.40351563 130.79945313 225.61328125 131.59765625 C222.85141032 134.33533561 219.97105484 136.82602474 216.9375 139.25 C216.34066406 139.74757812 215.74382812 140.24515625 215.12890625 140.7578125 C207.80636046 146.62174253 200.41185939 150.06675512 190.9375 149.25 C188.4375 148.75 188.4375 148.75 186.9375 148.25 C186.9375 147.59 186.9375 146.93 186.9375 146.25 C186.36 146.229375 185.7825 146.20875 185.1875 146.1875 C181.64491327 144.71142219 180.50673431 141.62422213 178.9375 138.25 C178.6075 137.26 178.2775 136.27 177.9375 135.25 C176.6175 135.58 175.2975 135.91 173.9375 136.25 C173.9375 136.91 173.9375 137.57 173.9375 138.25 C160.4111411 143.58272694 160.4111411 143.58272694 152.9375 141.25 C148.98586916 139.0877869 146.00187882 136.52571529 142.9375 133.25 C141.93991837 132.24758747 140.94032086 131.24717116 139.9375 130.25 C139.88851563 130.90484375 139.83953125 131.5596875 139.7890625 132.234375 C139.00701272 141.7807758 137.72498909 151.06768301 134.9375 160.25 C134.22073138 163.32477447 133.50842018 166.40001817 132.81640625 169.48046875 C131.91000275 172.33664688 130.9965217 174.08447718 128.9375 176.25 C126 176.75 126 176.75 122.9375 176.25 C120.5625 174.25 120.5625 174.25 118.9375 172.25 C119.22753906 171.59128906 119.51757812 170.93257812 119.81640625 170.25390625 C121.16859678 166.63078946 122.02903864 162.95209108 122.875 159.1875 C123.22317849 157.66778987 123.57214142 156.14825926 123.921875 154.62890625 C124.09267578 153.88527832 124.26347656 153.14165039 124.43945312 152.37548828 C125.12551941 149.44759951 125.87403509 146.53682963 126.625 143.625 C127.66981164 139.50253668 128.4574544 135.47440126 128.9375 131.25 C128.4528125 131.75789062 127.968125 132.26578125 127.46875 132.7890625 C112.90225327 147.74773414 112.90225327 147.74773414 103.5 148.42578125 C101.30258409 148.43608164 99.13039871 148.3842591 96.9375 148.25 C96.9375 147.59 96.9375 146.93 96.9375 146.25 C96.36 146.188125 95.7825 146.12625 95.1875 146.0625 C91.91184351 144.87962404 90.82565378 143.14516912 88.9375 140.25 C88.0807778 137.92529874 87.50703559 135.67052625 86.9375 133.25 C86.256875 133.9925 86.256875 133.9925 85.5625 134.75 C83.9375 136.25 83.9375 136.25 81.9375 136.25 C81.9375 136.91 81.9375 137.57 81.9375 138.25 C77.43419444 140.8394007 73.17632189 142.61598556 67.9375 142.25 C64.02000274 140.18037881 59.84589201 137.63704895 58.21142578 133.34204102 C56.99234926 127.56225355 56.69356093 122.08413335 56.8125 116.1875 C56.82152344 115.32189453 56.83054688 114.45628906 56.83984375 113.56445312 C56.86310277 111.45951221 56.89895992 109.35471658 56.9375 107.25 C52.60573833 110.79775693 48.76388763 114.35921761 45.25 118.75 C44.11304688 120.16732422 44.11304688 120.16732422 42.953125 121.61328125 C41.37099703 123.68292539 39.89717459 125.74268469 38.5 127.9375 C37.984375 128.700625 37.46875 129.46375 36.9375 130.25 C36.2775 130.25 35.6175 130.25 34.9375 130.25 C34.56625 131.31347656 34.56625 131.31347656 34.1875 132.3984375 C32.78679273 135.59380095 31.02795554 138.08516412 28.9375 140.875 C26.87700544 143.64000188 24.85060101 146.38034848 22.9375 149.25 C19.85828868 149.50660094 17.72613007 149.64431504 14.9375 148.25 C14.58287655 136.07459485 14.58287655 136.07459485 16.9375 130.25 C17.70802987 127.51812139 18.43078704 124.77539251 19.15625 122.03125 C19.98856399 119.06821218 20.94383123 116.16247743 21.9375 113.25 C21.02226562 113.18941406 20.10703125 113.12882812 19.1640625 113.06640625 C17.38128906 112.94072266 17.38128906 112.94072266 15.5625 112.8125 C13.78746094 112.69068359 13.78746094 112.69068359 11.9765625 112.56640625 C8.9375 112.25 8.9375 112.25 6.9375 111.25 C5.4179236 111.09876169 3.89277498 111.00118307 2.3671875 110.93359375 C1.47128906 110.89169922 0.57539063 110.84980469 -0.34765625 110.80664062 C-1.28480469 110.76732422 -2.22195312 110.72800781 -3.1875 110.6875 C-4.60482422 110.62272461 -4.60482422 110.62272461 -6.05078125 110.55664062 C-8.38787092 110.45040928 -10.7250683 110.34836824 -13.0625 110.25 C-13.0315625 111.7040625 -13.0315625 111.7040625 -13 113.1875 C-13.0625 116.25 -13.0625 116.25 -14.0625 117.25 C-14.34830723 118.72617192 -14.57740195 120.21342191 -14.78125 121.703125 C-14.90846436 122.62577148 -15.03567871 123.54841797 -15.16674805 124.49902344 C-15.29734619 125.4893457 -15.42794434 126.47966797 -15.5625 127.5 C-15.6963208 128.50836914 -15.8301416 129.51673828 -15.96801758 130.55566406 C-18.12190928 147.11096263 -18.89502354 163.48390843 -17.3125 180.125 C-17.2508667 180.87998779 -17.1892334 181.63497559 -17.12573242 182.4128418 C-16.60629143 187.14498703 -15.53305586 189.10392701 -12.0625 192.25 C-12.0625 193.57 -12.0625 194.89 -12.0625 196.25 C-15.25 197.0625 -15.25 197.0625 -19.0625 197.25 C-25.30647898 192.25481681 -26.68114197 187.53901067 -27.68359375 179.9140625 C-29.7443978 158.46448713 -30.42110307 130.84793077 -23.0625 110.25 C-41.32466174 110.60820069 -41.32466174 110.60820069 -59.4453125 112.65234375 C-62.41854191 113.14360088 -65.3786969 113.56117652 -68.3671875 113.94140625 C-78.11116418 115.18321287 -87.60788273 116.50801116 -97.0625 119.25 C-97.86558594 119.39308594 -98.66867188 119.53617187 -99.49609375 119.68359375 C-104.76064157 120.82883265 -106.93701245 122.92285956 -109.9375 127.375 C-110.94836773 129.04172834 -111.95806457 130.70931 -112.9453125 132.39013672 C-114.56191708 135.08141593 -116.3018811 137.68660966 -118.03295898 140.30517578 C-127.71576481 155.00526723 -136.59159247 169.83306792 -143.0625 186.25 C-145.3725 185.92 -147.6825 185.59 -150.0625 185.25 C-150.73610912 177.16669061 -148.50421655 171.5144803 -145.0625 164.25 C-144.4025 164.25 -143.7425 164.25 -143.0625 164.25 C-142.0725 160.95 -141.0825 157.65 -140.0625 154.25 C-139.4025 154.25 -138.7425 154.25 -138.0625 154.25 C-137.85625 153.486875 -137.65 152.72375 -137.4375 151.9375 C-135.50355609 146.75101406 -132.7839854 142.05966916 -130.0625 137.25 C-129.4025 137.25 -128.7425 137.25 -128.0625 137.25 C-127.9078125 136.4146875 -127.9078125 136.4146875 -127.75 135.5625 C-126.92925601 132.80181567 -125.59592846 130.6779284 -124.0625 128.25 C-123.7325 127.59 -123.4025 126.93 -123.0625 126.25 C-136.00431389 130.66447465 -148.54016224 135.83821897 -160.0625 143.25 C-160.90167969 143.72566406 -161.74085938 144.20132813 -162.60546875 144.69140625 C-169.08670767 148.80271679 -173.16891047 154.88772389 -175.0625 162.25 C-175.45330797 164.23956785 -175.81100872 166.23806977 -176.0625 168.25 C-179.0625 169.25 -179.0625 169.25 -182.0625 168.25 C-184.26157773 164.9513834 -184.35901919 163.78887419 -184.375 159.9375 C-184.39175781 159.01324219 -184.40851563 158.08898437 -184.42578125 157.13671875 C-183.68708421 151.26685732 -180.49192859 147.23481188 -176.625 142.9375 C-175.86316406 142.07511719 -175.10132813 141.21273437 -174.31640625 140.32421875 C-172.02019125 138.21106422 -170.98287428 137.89825891 -168.0625 137.25 C-167.7325 136.26 -167.4025 135.27 -167.0625 134.25 C-164 133.0625 -164 133.0625 -161.0625 132.25 C-161.0625 131.59 -161.0625 130.93 -161.0625 130.25 C-155.4375 127.25 -155.4375 127.25 -152.0625 127.25 C-152.0625 126.59 -152.0625 125.93 -152.0625 125.25 C-150.79410474 124.74384702 -149.52266898 124.24530901 -148.25 123.75 C-147.54230469 123.4715625 -146.83460938 123.193125 -146.10546875 122.90625 C-144.0625 122.25 -144.0625 122.25 -141.0625 122.25 C-141.0625 121.59 -141.0625 120.93 -141.0625 120.25 C-139.52529297 119.85167969 -139.52529297 119.85167969 -137.95703125 119.4453125 C-136.59631011 119.08870972 -135.23563547 118.73192949 -133.875 118.375 C-132.86469727 118.11396484 -132.86469727 118.11396484 -131.83398438 117.84765625 C-128.92268073 117.08077627 -126.11110117 116.26956491 -123.31640625 115.14453125 C-121.0625 114.25 -121.0625 114.25 -117.1875 113.8125 C-114.09659181 113.10100793 -113.15895559 112.36988609 -111.1328125 109.8515625 C-109.94630852 107.95213768 -108.80045966 106.0265156 -107.703125 104.07421875 C-106.04368019 101.21760305 -104.16035155 98.79556378 -102.0625 96.25 C-101.0725 94.765 -101.0725 94.765 -100.0625 93.25 C-99.4025 93.25 -98.7425 93.25 -98.0625 93.25 C-97.68738281 92.16332031 -97.68738281 92.16332031 -97.3046875 91.0546875 C-95.94864777 87.99293742 -94.35459879 85.92312715 -92.1875 83.375 C-89.36377153 80.01866584 -86.57539789 76.65278137 -83.87109375 73.19921875 C-83.33274902 72.5139209 -82.7944043 71.82862305 -82.23974609 71.12255859 C-81.17199202 69.76034074 -80.10843415 68.39482223 -79.04931641 67.02587891 C-77.76559409 65.39723811 -76.41920721 63.818362 -75.0625 62.25 C-74.4025 62.25 -73.7425 62.25 -73.0625 62.25 C-72.794375 61.445625 -72.52625 60.64125 -72.25 59.8125 C-71.858125 58.966875 -71.46625 58.12125 -71.0625 57.25 C-70.0725 56.92 -69.0825 56.59 -68.0625 56.25 C-67.5675 55.26 -67.5675 55.26 -67.0625 54.25 C-66.0625 52.25 -66.0625 52.25 -63.0625 51.25 C-62.36054239 49.93490391 -61.69942266 48.59779514 -61.0625 47.25 C-56.01476115 40.92526754 -50.13842602 35.23054855 -44.4375 29.5 C-43.81657471 28.87440186 -43.19564941 28.24880371 -42.5559082 27.60424805 C-31.16246079 16.25 -31.16246079 16.25 -28.0625 16.25 C-27.7325 15.26 -27.4025 14.27 -27.0625 13.25 C-25.0948652 11.80016383 -23.13835237 10.53178846 -21.0625 9.25 C-19.74185547 8.38761719 -19.74185547 8.38761719 -18.39453125 7.5078125 C-6.78792231 -0.04196552 -6.78792231 -0.04196552 0 0 Z M-24.0625 26.25 C-24.56394531 26.69359863 -25.06539063 27.13719727 -25.58203125 27.59423828 C-36.0188032 36.87098643 -46.33014432 46.59127189 -55.35546875 57.26171875 C-57.54929816 59.81700289 -59.84029418 62.27574822 -62.125 64.75 C-65.59842578 68.55070906 -68.8290301 72.39567823 -71.80859375 76.59375 C-73.0625 78.25 -73.0625 78.25 -74.41015625 79.59375 C-79.23705751 84.43206237 -83.26983023 90.05304327 -87.375 95.5 C-88.19967773 96.57894531 -88.19967773 96.57894531 -89.04101562 97.6796875 C-89.55986328 98.36804688 -90.07871094 99.05640625 -90.61328125 99.765625 C-91.08419189 100.38727539 -91.55510254 101.00892578 -92.0402832 101.64941406 C-93.24191575 103.2144026 -93.24191575 103.2144026 -93.0625 105.25 C-93.7225 105.25 -94.3825 105.25 -95.0625 105.25 C-95.7225 106.57 -96.3825 107.89 -97.0625 109.25 C-93.74929669 108.94467865 -90.43710045 108.62954424 -87.125 108.3125 C-86.17947266 108.22548828 -85.23394531 108.13847656 -84.25976562 108.04882812 C-83.36064453 107.96181641 -82.46152344 107.87480469 -81.53515625 107.78515625 C-80.70250244 107.706604 -79.86984863 107.62805176 -79.01196289 107.54711914 C-77.061888 107.44688602 -77.061888 107.44688602 -76.0625 106.25 C-73.06016921 105.87783608 -70.07532838 105.5739988 -67.0625 105.3125 C-65.64686768 105.18609131 -65.64686768 105.18609131 -64.20263672 105.05712891 C-49.84469372 103.82787631 -35.44872445 103.06510581 -21.0625 102.25 C-20.88074219 101.37988281 -20.88074219 101.37988281 -20.6953125 100.4921875 C-19.72324646 95.96086429 -18.54163629 91.64565907 -17.0625 87.25 C-16.26531509 83.70651308 -15.55528788 80.1514002 -14.84375 76.58984375 C-14.14886475 73.61920932 -13.20388265 71.06541053 -12.0625 68.25 C-11.54908631 66.174841 -11.07188149 64.09049645 -10.625 62 C-9.58418847 57.33211797 -8.3399421 52.87983594 -6.75 48.375 C-5.79542243 45.42448752 -5.1812514 42.43215007 -4.58984375 39.390625 C-4.0625 37.25 -4.0625 37.25 -3.1015625 34.9375 C-1.83841362 31.67040816 -1.1859331 28.43325677 -0.5 25 C0.8298476 18.3576524 0.8298476 18.3576524 1.9375 17.25 C2.00929964 15.73071962 2.02142007 14.20832518 2 12.6875 C1.99097656 11.86121094 1.98195313 11.03492188 1.97265625 10.18359375 C1.96105469 9.54550781 1.94945312 8.90742188 1.9375 8.25 C-6.80542273 8.25 -17.69131029 20.58994977 -24.0625 26.25 Z M172.9375 44.25 C172.6075 45.24 172.2775 46.23 171.9375 47.25 C170.9475 47.58 169.9575 47.91 168.9375 48.25 C167.71229736 51.25847418 167.71229736 51.25847418 166.9375 54.25 C166.2775 54.25 165.6175 54.25 164.9375 54.25 C163.78225582 56.62081442 162.63824792 58.99603957 161.5 61.375 C161.17451172 62.04015625 160.84902344 62.7053125 160.51367188 63.390625 C158.63165567 67.34867971 157.42523294 70.83979513 156.9375 75.25 C156.2775 75.25 155.6175 75.25 154.9375 75.25 C154.40595258 76.85064843 153.88761647 78.45568874 153.375 80.0625 C153.08496094 80.95582031 152.79492188 81.84914062 152.49609375 82.76953125 C151.68770444 85.36215139 151.68770444 85.36215139 152.9375 88.25 C154.10999353 86.79634731 155.27533816 85.33692581 156.4375 83.875 C157.41203125 82.65683594 157.41203125 82.65683594 158.40625 81.4140625 C160.13003615 79.41973157 160.13003615 79.41973157 159.9375 77.25 C160.5975 77.25 161.2575 77.25 161.9375 77.25 C163.95453856 73.59243674 165.95173713 69.92463472 167.9375 66.25 C168.3396875 65.51394531 168.741875 64.77789062 169.15625 64.01953125 C172.51328968 57.64878549 174.30284581 51.5569162 173.9375 44.25 C173.6075 44.25 173.2775 44.25 172.9375 44.25 Z M205.9375 111.25 C204.62131002 112.03551657 203.30964772 112.8286237 202 113.625 C200.90365234 114.28628906 200.90365234 114.28628906 199.78515625 114.9609375 C197.79977728 116.1273984 197.79977728 116.1273984 196.9375 118.25 C201.6892398 117.81802365 203.85750054 116.92230705 206.9375 113.25 C206.6075 112.59 206.2775 111.93 205.9375 111.25 Z M228.9375 126.25 C229.9375 128.25 229.9375 128.25 229.9375 128.25 Z " fill="#010101" transform="translate(194.0625,13.75)"/>
<path d="M0 0 C3.6875 0.25 3.6875 0.25 6.125 1.1875 C8.3469699 4.12050027 8.08246545 6.59660438 8.0234375 10.19140625 C7.6875 12.25 7.6875 12.25 5.6875 14.25 C3.59375 14.515625 3.59375 14.515625 1.1875 14.5 C0.3934375 14.50515625 -0.400625 14.5103125 -1.21875 14.515625 C-3.3125 14.25 -3.3125 14.25 -5.3125 12.25 C-6.47843591 7.87774033 -6.3858767 5.2815658 -4.3125 1.25 C-3.3125 0.25 -3.3125 0.25 0 0 Z " fill="#020202" transform="translate(301.3125,98.75)"/>
</svg>
